<?xml version="1.0" encoding="UTF-8"?>
<svg id="Layer_1" data-name="Layer 1" xmlns="http://www.w3.org/2000/svg" viewBox="0 0 539.86 154.82">
  <defs>
    <style>
      .cls-1 {
        fill: #fff;
      }
    </style>
  </defs>
  <g>
    <path class="cls-1" d="M62.22,111.06c-5.08-5.91-10.64-16.67-5.32-28.74,5.32-12.06,17.5-19.75,18.09-27.55-11.12,4.26-22.71,2.13-22.11-5.32.59-6.62,15.14-9.58,22.47-2.13.95.95,1.77,2.25,2.48,3.78l1.54-.83c9.93-6.15,14.31-18.21,11.47-26.49-3.07-9.22-14.9-13.72-37.84-.12l-.47.24c-1.06,7.21-3.9,15.73-8.99,25.31-12.06,22.82-28.03,50.26-39.26,44.82-9.58-4.61-1.42-22,8.51-35.71,9.93-13.84,22.23-25.31,34.53-34.18,1.54-11.47-.71-20.46-8.16-21.88C28.28.25,24.26,12.9,19.88,23.43c-2.72,6.5-11.59,3.19-8.04-3.55C17.4,9,29.1-1.29,39.75.13c8.99,1.18,13.83,8.51,13.13,20.1,25.9-16.67,43.99-12.89,48.84-2.25,4.02,9.11-1.77,23.3-20.93,33.94l-2.37,1.3c.71,3.07.71,6.74-.71,11.12-4.97,14.54-25.43,32.4-14.43,43.87,6.39,6.62,11.47,2.01,18.45,1.3,5.56-.47,6.39,7.57.59,8.4-7.8,1.06-14.78-.71-20.1-6.86ZM39.27,48.85c3.55-6.98,6.03-14.19,7.33-20.81C23.9,45.42,4.51,81.02,11.96,84.57c4.73,2.37,14.43-10.53,27.32-35.71ZM74.87,52.28c-.24-.95-.83-2.01-1.54-3.07-2.48-3.43-10.05-3.31-10.05.35,0,2.96,5.32,4.73,11.59,2.72Z"/>
    <path class="cls-1" d="M90.6,67.06c9.58-8.99,20.46-12.54,24.24-9.58,1.06.83,1.54,2.01,1.54,3.31.47-.71.95-1.54,1.54-2.25,2.96-4.02,10.41-.83,6.15,4.85-3.55,4.73-20.1,16.32-16.32,21.76,3.19,4.61,11.47.83,23.06-11.47l.83.47c-10.64,14.19-25.07,24.6-30.27,18.57-2.13-2.37-1.18-5.79.95-9.58-7.8,8.51-16.32,13.36-21.52,9.22-6.74-5.44,0-16.08,9.82-25.31ZM108.22,73.92c2.01-3.19,3.67-6.15,5.56-9.11,1.18-2.96.83-4.73-.35-5.79-3.55-3.07-13.72,3.43-19.87,10.76-4.85,5.68-7.69,12.18-4.38,15.96,4.14,4.61,12.89-5.2,19.04-11.83Z"/>
    <path class="cls-1" d="M130.21,74.28c3.31-5.2,6.27-10.41,10.05-15.61,2.84-3.9,10.17-1.18,6.15,4.61-3.43,4.85-21.29,17.15-15.85,22.59,3.55,3.55,11.12,0,22.47-12.06l.83.35c-10.64,13.95-25.19,24.48-30.27,18.68-3.67-4.26,2.13-11.59,6.62-18.57ZM156.58,41.99c2.36,1.54,2.48,5.79.12,9.11-2.37,3.43-6.27,4.61-8.87,2.96-2.37-1.54-2.37-5.91-.12-9.11,2.48-3.55,6.39-4.73,8.87-2.96Z"/>
    <path class="cls-1" d="M146.41,76.52c1.42-2.6,4.14-3.19,5.91-2.25,4.73-5.56,9.11-12.18,14.31-19.28.24-.47.59-.95.95-1.3,3.67-3.78,9.11-1.42,11.12,1.66,2.36,3.67-3.08,8.51-6.39,4.38-.59-.83-1.54-3.78-2.6-3.07-5.68,4.14,1.89,20.34.12,28.97,4.49-1.3,9.22-4.85,15.85-12.18l.83.59c-7.8,9.7-15.49,15.14-21.64,17.98-5.44,3.43-13.36,2.6-17.27-.83-3.43-3.08-4.73-8.16-1.18-14.66ZM165.45,74.99c1.06-4.85-.71-11.83.12-16.91-4.02,6.15-7.8,11.23-12.3,16.91.83,1.06.95,2.6-.24,4.61-1.77,3.07-6.74,6.98-4.02,10.05,3.67,4.14,13.84-2.84,16.44-14.66Z"/>
    <path class="cls-1" d="M190.28,67.77c8.63-9.7,19.16-14.19,24.12-10.17,4.73,3.67,2.72,12.65-3.67,21.52,1.54,2.72,8.99,2.25,16.91-6.86l.71.71c-8.75,11.35-15.85,12.65-20.93,10.29-8.28,9.58-18.92,13.95-23.77,10.05-6.86-5.44-2.13-15.73,6.62-25.54ZM205.42,81.85c-1.3-1.3-3.31-4.49.36-9.82,3.78-5.44,6.86-3.55,8.16-2.13,1.54-4.26,1.06-7.8-.59-9.34-3.78-3.31-11.59-.83-16.91,5.56-6.27,7.45-9.82,15.96-6.15,19.28,3.55,3.08,9.46,1.42,15.14-3.55Z"/>
    <path class="cls-1" d="M254.26,62.57c-2.96-2.72-10.64,4.49-18.09,12.89-5.56,6.15-10.88,13.01-13.95,16.56-3.67,4.38-9.34.35-6.03-4.38,2.01-2.84,7.92-10.17,11-14.78,4.73-6.98,5.56-8.87,8.4-13.36,3.55-5.68,10.76-2.13,6.39,3.67-2.96,4.02-8.87,8.4-13.13,13.72-3.19,4.02-5.79,7.21-4.73,8.04,1.3.95,7.21-6.86,13.25-13.6,8.16-9.11,17.5-18.92,22.94-13.95,7.69,7.1-17.74,25.54-13.25,29.8,3.08,2.96,13.36-2.13,23.65-13.13l.71.71c-11.23,13.01-26.73,24.24-32.4,17.86-8.51-9.46,19.28-26.25,15.25-30.04Z"/>
    <path class="cls-1" d="M317.52,81.85c-7.92,9.22-17.27,15.02-22.59,10.64-6.74-5.44,0-16.08,9.82-25.31,9.58-8.99,20.46-12.54,24.24-9.58,1.77,1.3,1.77,3.43,1.06,5.56,2.25-2.6,4.14-4.85,5.32-6.39,5.08-6.39,19.87-26.84,24.01-32.05,5.08-6.5,11.83,0,6.62,4.97-3.78,3.55-17.5,15.73-28.38,29.09-9.58,11.83-16.91,22.71-13.36,26.96,2.96,3.55,11.23.24,22.94-12.18l.83.35c-10.41,13.6-24.71,24.83-30.39,19.16-2.6-2.6-2.13-6.74-.12-11.23ZM320.95,75.46c1.77-2.72,3.67-5.44,5.68-8.04,1.77-2.72,2.48-5.68.95-6.86-7.69-6.27-31.81,16.79-24.24,25.31,3.78,4.26,11.59-2.96,17.62-10.41Z"/>
    <path class="cls-1" d="M381.38,24.18c3.31,7.69-6.27,14.66-10.88,16.2-2.72.95-3.78-2.72-.95-3.43,6.86-2.01,11.23-5.68,8.4-6.98-2.25.71-4.73-.59-5.44-2.84-.83-2.84.83-4.97,3.08-5.56,2.13-.71,4.61-.12,5.79,2.6Z"/>
    <path class="cls-1" d="M372.06,76.52c-1.77-11.47,6.86-25.42,30.51-33.11-3.19-3.19-5.08-7.45-4.26-12.65,2.25-14.07,21.52-22.94,37.61-24.6,12.06-1.18,22.59,1.66,23.41,9.46.95,8.99-11.94,15.02-20.81,16.79-6.62,1.3-8.04-8.16-.47-7.09,11.12,1.54,19.16,0,17.15-9.46-1.42-6.86-9.46-8.99-18.45-7.69-12.65,1.89-27.08,10.76-28.5,23.65-.47,3.9.12,7.1,1.3,9.58,12.77-3.07,23.89-2.36,23.89,2.96,0,4.26-6.74,6.86-12.3,6.74-4.97-.12-11.94-2.13-16.91-6.15-17.62,6.5-23.06,19.16-20.93,29.56,2.25,11,12.77,19.51,26.02,16.2,9.11-2.25,17.26-8.63,22.23-21.88,2.37-6.27,10.53-2.96,7.69,2.72-5.56,11.12-17.38,18.8-29.56,21.76-21.05,5.32-35.71-4.14-37.61-16.79ZM426.81,46.01c0-4.14-7.45-5.08-16.32-2.96,4.97,7.69,16.32,7.33,16.32,2.96Z"/>
    <path class="cls-1" d="M456.49,58.79c-2.13.36-4.14.95-6.27.95-1.06,0-2.01-.71-2.01-1.89,0-1.3.95-2.13,2.01-2.13,2.72,0,5.32.59,7.92.83,4.85-6.39,10.64-15.14,14.43-19.87,5.09-6.5,12.89-1.06,6.62,4.97-3.19,3.07-9.82,7.33-16.67,14.9,2.48-.35,4.85-.83,7.33-.83,1.06,0,2.01.83,2.01,2.13,0,1.18-.95,1.89-2.01,1.89-3.07,0-6.15-.95-9.11-1.3l-1.77,2.13c-9.58,11.71-15.49,20.93-11.94,25.19,2.96,3.55,11.23.24,22.94-12.18l.83.35c-10.41,13.6-24.72,24.83-30.39,19.16-7.8-7.8,8.63-25.07,16.08-34.29Z"/>
    <path class="cls-1" d="M479.19,76.52c4.85-4.26,10.17-8.51,12.65-12.89,2.25-4.02-3.78-7.21-5.91-5.2-3.43,3.19-11.35,11.23-17.62,18.33l-.71-.83,15.61-17.86c2.13-2.48-.71-6.39-.71-10.88,0-4.97,7.92-6.27,8.75-.47.35,2.37-1.42,3.43-1.66,6.86-.12,2.84,7.33,4.73,6.98,9.34-.59,10.05-18.33,18.57-14.66,22.82,3.31,3.78,11.12,0,24.12-13.84l.83.35c-12.18,16.2-26.37,26.13-32.76,19.75-3.78-3.78-2.72-8.75,5.08-15.49Z"/>
    <path class="cls-1" d="M508.76,68.13c7.45-8.99,19.28-14.43,24.48-9.93,4.61,4.02-1.89,17.62-15.02,21.76-5.91,1.89-7.57-6.62-1.77-6.62,15.02,0,18.33-11.12,14.78-14.43-3.08-2.96-9.58,1.77-14.78,7.81-4.97,5.79-8.28,13.48-4.61,18.57,4.85,6.74,15.73,1.54,27.32-10.05l.71.71c-7.92,10.52-24.24,23.3-33.82,17.03-8.04-5.32-4.49-16.32,2.72-24.83Z"/>
  </g>
  <g>
    <path class="cls-1" d="M132.49,154.49v-28.6h10.46c1.63,0,3.06.29,4.29.86,1.23.57,2.18,1.42,2.86,2.55.68,1.13,1.02,2.57,1.02,4.31,0,1.17-.25,2.23-.74,3.17-.49.94-1.18,1.64-2.08,2.1.9.35,1.67.85,2.31,1.49.64.64,1.13,1.41,1.47,2.31.34.9.51,1.96.51,3.19,0,1.85-.38,3.42-1.14,4.7-.76,1.28-1.85,2.25-3.25,2.92-1.4.67-3.09,1-5.05,1h-10.67ZM137.8,137h4.86c1.06,0,1.89-.22,2.47-.67.59-.45.88-1.26.88-2.43s-.3-1.98-.9-2.43-1.46-.67-2.57-.67h-4.74v6.21ZM137.8,149.58h4.86c1.66,0,2.85-.33,3.55-1,.71-.67,1.06-1.61,1.06-2.84s-.35-2.17-1.06-2.84c-.71-.67-1.89-1-3.55-1h-4.86v7.68Z"/>
    <path class="cls-1" d="M171.35,154.82c-1.8,0-3.51-.3-5.13-.9-1.62-.6-3.06-1.5-4.31-2.7-1.25-1.2-2.24-2.72-2.96-4.56-.72-1.84-1.08-4-1.08-6.48s.36-4.64,1.08-6.48c.72-1.84,1.71-3.36,2.96-4.56,1.25-1.2,2.69-2.1,4.31-2.7,1.62-.6,3.33-.9,5.13-.9s3.51.3,5.13.9c1.62.6,3.06,1.5,4.31,2.7,1.25,1.2,2.24,2.72,2.96,4.56s1.08,4,1.08,6.48-.36,4.64-1.08,6.48-1.71,3.36-2.96,4.56c-1.25,1.2-2.69,2.1-4.31,2.7-1.62.6-3.33.9-5.13.9ZM171.35,149.91c1.44,0,2.78-.34,4-1.02s2.21-1.74,2.96-3.17c.75-1.43,1.12-3.28,1.12-5.54s-.37-4.11-1.12-5.54c-.75-1.43-1.74-2.49-2.96-3.17-1.23-.68-2.56-1.02-4-1.02s-2.74.34-3.98,1.02c-1.24.68-2.23,1.74-2.98,3.17-.75,1.43-1.12,3.28-1.12,5.54s.37,4.11,1.12,5.54c.75,1.43,1.74,2.49,2.98,3.17,1.24.68,2.57,1.02,3.98,1.02Z"/>
    <path class="cls-1" d="M203.96,154.82c-1.8,0-3.51-.3-5.13-.9-1.62-.6-3.06-1.5-4.31-2.7-1.25-1.2-2.24-2.72-2.96-4.56-.72-1.84-1.08-4-1.08-6.48s.36-4.64,1.08-6.48c.72-1.84,1.71-3.36,2.96-4.56,1.25-1.2,2.69-2.1,4.31-2.7,1.62-.6,3.33-.9,5.13-.9s3.51.3,5.13.9c1.62.6,3.06,1.5,4.31,2.7,1.25,1.2,2.24,2.72,2.96,4.56s1.08,4,1.08,6.48-.36,4.64-1.08,6.48-1.71,3.36-2.96,4.56c-1.25,1.2-2.69,2.1-4.31,2.7-1.62.6-3.33.9-5.13.9ZM203.96,149.91c1.44,0,2.78-.34,4-1.02s2.21-1.74,2.96-3.17c.75-1.43,1.12-3.28,1.12-5.54s-.37-4.11-1.12-5.54c-.75-1.43-1.74-2.49-2.96-3.17-1.23-.68-2.56-1.02-4-1.02s-2.74.34-3.98,1.02c-1.24.68-2.23,1.74-2.98,3.17-.75,1.43-1.12,3.28-1.12,5.54s.37,4.11,1.12,5.54c.75,1.43,1.74,2.49,2.98,3.17,1.24.68,2.57,1.02,3.98,1.02Z"/>
    <path class="cls-1" d="M224.47,154.49v-28.6h5.31v10.62l9.77-10.62h6.54l-11.61,12.79,12.42,15.81h-6.74l-10.38-13.65v13.65h-5.31Z"/>
    <path class="cls-1" d="M272.36,154.82c-1.72,0-3.26-.36-4.64-1.08-1.38-.72-2.51-1.7-3.41-2.92-.9-1.23-1.5-2.56-1.8-4l4.29-2.7c.27,1.06.65,2.03,1.14,2.9s1.11,1.57,1.86,2.1,1.64.8,2.68.8c.71,0,1.34-.12,1.9-.35.56-.23,1-.6,1.33-1.1.33-.5.49-1.15.49-1.94,0-.84-.31-1.57-.94-2.17-.63-.6-1.44-1.16-2.45-1.68-1.01-.52-2.07-1.05-3.19-1.59-.93-.46-1.8-1.03-2.62-1.72-.82-.68-1.49-1.52-2-2.51s-.78-2.2-.78-3.62.33-2.74,1-3.9c.67-1.16,1.6-2.08,2.8-2.76,1.2-.68,2.59-1.02,4.17-1.02,2.02,0,3.7.45,5.05,1.35,1.35.9,2.36,2.18,3.04,3.84l-4.29,2.74c-.38-1.12-.9-1.9-1.55-2.35-.65-.45-1.4-.67-2.25-.67-.76,0-1.44.25-2.02.74-.59.49-.88,1.12-.88,1.88s.27,1.46.82,2.02c.54.56,1.25,1.06,2.12,1.51.87.45,1.8.91,2.78,1.37,1.12.52,2.17,1.11,3.17,1.78.99.67,1.8,1.52,2.41,2.55s.92,2.36.92,3.96c0,1.74-.39,3.25-1.16,4.54-.78,1.28-1.85,2.27-3.23,2.96s-2.96,1.04-4.76,1.04Z"/>
    <path class="cls-1" d="M292.1,154.49v-23.7h-7.97v-4.9h21.25v4.9h-7.97v23.7h-5.31Z"/>
    <path class="cls-1" d="M321.6,154.82c-2.07,0-3.91-.4-5.52-1.21s-2.87-2.04-3.78-3.7c-.91-1.66-1.37-3.76-1.37-6.29v-17.74h5.31v17.82c0,1.39.2,2.54.59,3.45.39.91.99,1.6,1.78,2.06.79.46,1.78.7,2.98.7s2.19-.23,2.98-.7c.79-.46,1.38-1.15,1.78-2.06.39-.91.59-2.06.59-3.45v-17.82h5.31v17.74c0,2.53-.46,4.63-1.37,6.29-.91,1.66-2.17,2.89-3.76,3.7s-3.44,1.21-5.54,1.21Z"/>
    <path class="cls-1" d="M340.15,154.49v-28.6h8.95c1.69,0,3.32.28,4.9.84,1.58.56,3,1.42,4.27,2.57,1.27,1.16,2.27,2.64,3.02,4.43.75,1.8,1.12,3.95,1.12,6.46s-.38,4.66-1.12,6.46c-.75,1.8-1.76,3.28-3.02,4.43-1.27,1.16-2.69,2.02-4.27,2.57-1.58.56-3.21.84-4.9.84h-8.95ZM345.46,149.58h1.96c1.14,0,2.28-.14,3.41-.41,1.13-.27,2.17-.75,3.11-1.43.94-.68,1.69-1.63,2.25-2.86s.84-2.79.84-4.7-.28-3.47-.84-4.7c-.56-1.23-1.31-2.18-2.25-2.86-.94-.68-1.98-1.16-3.11-1.43-1.13-.27-2.27-.41-3.41-.41h-1.96v18.8Z"/>
    <path class="cls-1" d="M369.45,154.49v-28.6h5.31v28.6h-5.31Z"/>
    <path class="cls-1" d="M395.28,154.82c-1.8,0-3.51-.3-5.13-.9-1.62-.6-3.06-1.5-4.31-2.7-1.25-1.2-2.24-2.72-2.96-4.56-.72-1.84-1.08-4-1.08-6.48s.36-4.64,1.08-6.48c.72-1.84,1.71-3.36,2.96-4.56,1.25-1.2,2.69-2.1,4.31-2.7,1.62-.6,3.33-.9,5.13-.9s3.51.3,5.13.9c1.62.6,3.06,1.5,4.31,2.7,1.25,1.2,2.24,2.72,2.96,4.56s1.08,4,1.08,6.48-.36,4.64-1.08,6.48-1.71,3.36-2.96,4.56c-1.25,1.2-2.69,2.1-4.31,2.7-1.62.6-3.33.9-5.13.9ZM395.28,149.91c1.44,0,2.78-.34,4-1.02s2.21-1.74,2.96-3.17c.75-1.43,1.12-3.28,1.12-5.54s-.37-4.11-1.12-5.54c-.75-1.43-1.74-2.49-2.96-3.17-1.23-.68-2.56-1.02-4-1.02s-2.74.34-3.98,1.02c-1.24.68-2.23,1.74-2.98,3.17-.75,1.43-1.12,3.28-1.12,5.54s.37,4.11,1.12,5.54c.75,1.43,1.74,2.49,2.98,3.17,1.24.68,2.57,1.02,3.98,1.02Z"/>
  </g>
</svg>