<?xml version="1.0" encoding="UTF-8"?>
<svg id="Layer_1" data-name="Layer 1" xmlns="http://www.w3.org/2000/svg" viewBox="0 0 363.45 340.7">
  <defs>
    <style>
      .cls-1 {
        fill: #fff;
      }
    </style>
  </defs>
  <path class="cls-1" d="M87.46.45c18.94-1.49,37.63.8,55.76,6.1,11.66,3.41,23.73,10.39,35.84,10.92,16.43.73,31.45-8.81,47.21-12.76,77.85-19.52,150.36,24.36,135.13,110.52-4.54,25.68-21.62,43.97-13.1,71.05,1.91,6.07,5.52,12.44,7.63,18.62,29.64,86.8-32.65,149.87-119.96,133.08-14.23-2.74-24.8-7.96-37.97-12.08-22.61-7.06-32.98,1.57-53.14,7.63C49.76,362.14-26.1,299.78,8.84,200.8c1.8-5.1,4.76-9.92,6.35-14.99,8.28-26.48-7.59-42.58-12.67-67.27C-9.93,58.05,24.67,5.38,87.46.45ZM317.89,294.47c21.08-20.97,29.81-51.21,26.54-80.52-1.83-16.42-8.16-30.39-7.41-47.63.5-11.56,4.63-22.43,6.47-33.74,11.56-71.21-41.93-119.39-111.04-115.14-17.86,1.1-34.5,8.05-52.52,7.74-14.54-.25-27-5.28-41.04-6.91C69.46,10.18,13.31,52.46,18.71,125.31c1.3,17.52,8.41,31.07,7.41,50.1-.71,13.55-6.44,26.19-7.41,39.35-5.31,71.76,49.34,115.57,118.54,107.88,16.24-1.8,30.78-8.06,47.63-7.41,13.68.53,27.38,5.86,41,7.41,32.6,3.71,68.34-4.63,92.01-28.18Z"/>
  <g>
    <path class="cls-1" d="M236.96,38.41c1.59,2.25,6.51,16.68,9.12,16.12,3.58-3.33,4.7-8.75,6.93-12.95.58-1.1,1.44-3.59,3.06-3.17l-2.2,19.1c1.92,1.88,14.33-7.93,17.62-7.34,2.56,2.56-14.55,12-11.72,15.39l18.33,2.98c.22,1.75.03,1.17-1.01,1.54-5.21,1.86-11.98.89-17.34,2.86-1.76,2.61,13.86,13.16,11.75,15.41l-16.53-8.04c-3.49.29,2.46,16.44,1.11,19.06-1.51.32-1.71-.75-2.34-1.69-2.9-4.29-4.12-10.46-7.58-14.46-2.06-.52-6.85,12.32-8.3,14.46-.64.94-.83,2.01-2.34,1.69-1.35-2.62,4.6-18.77,1.11-19.06l-16.53,8.04c-2.15-2.3,13.65-12.59,11.75-15.41l-18.36-2.95c-.41-1.86.71-1.55,2.05-1.95,5.08-1.53,11.09-1.24,16.28-2.48,2.86-3.42-12.59-11-11.72-15.39,1.56-1.55,14.32,8.53,17.62,7.34l-2.2-18.73,1.46-.36Z"/>
    <g>
      <path class="cls-1" d="M34.3,247.63c-4.07-8.19,3.74-18.54,11.97-11.31,8.95,7.86,3.36,36.32,22.1,37.29,4.49.23,8.93-1.21,12.26-4.25,18.08-16.5-1.84-59.85.22-87.22.81-9,3.65-15.63,7.3-20.63l-3.27-4.18c-26.4-34.03-25.91-64.15-11.61-77.49,16.98-15.49,52.6-8.35,86.52,41.78,7.67-21.49,22.09-30.99,39.25-26.19,20.33,5.66,35.53,41.29,37.18,65.24,1.2,14.92-18.94,16.51-18.83,2.65.22-22.4,2.29-58.82-18.93-63.59-14.56-3.19-25.56,11.32-31.64,33.23,15.37,25.52,28.73,55.75,36,88.42,7.35,32.46,8.67,70.17-12.19,71.11-24.5,1.15-32.16-60.75-36.33-111.31-1.79-21.24-.34-38.81,3.3-52.67l-.67-.79c-30.95-42.29-55.79-43.31-68.47-29.01-11.52,12.76-12.93,37.94.27,56.72l2.14,2.68c2.47-2.23,4.97-3.94,7.41-4.92,19-7.8,43,8.78,38.96,21.2-4.68,13.92-27.27,8.81-44.07-7.46-4.96,14.56,11.11,37.86,11.41,63.76.3,25.91-16.12,43.44-30.81,47.82-16.35,4.87-29.57-10.97-39.46-30.88ZM184.03,269.46c16.2-.66,8.65-79.95-18.95-128.9-2.76,12.97-3.85,27.92-2.83,43.27,3.84,55.47,11.4,86.25,21.78,85.63ZM118.33,166.57c2.83-6.62-10.75-12.68-17.89-8.4-2.1,1.37-3.99,2.84-5.15,4.37,9.77,8.47,20.76,9.38,23.04,4.04Z"/>
      <path class="cls-1" d="M197.98,260.8c-8.05-20.7-8.39-49.18,32.62-73.31-7.28-4.65-12.58-11.82-13.18-21.88-1.61-27.22,30.74-51.74,60.1-61.47,22.05-7.19,42.88-6.23,47.65,8.01,5.48,16.4-16.11,32.99-31.95,39.96-11.83,5.16-18.39-11.92-3.81-13.06,21.4-1.72,35.79-7.91,28.13-24.75-5.48-12.23-21.38-12.89-37.64-6.75-22.86,8.76-46.15,31.28-43.48,55.95.73,7.49,3.15,13.21,6.38,17.36,22.59-11.01,43.65-14.28,45.85-4.33,1.76,7.95-9.77,15.6-20.2,17.67-9.33,1.83-23.19.95-34.13-4.51-30.24,19.42-28.41,44.79-20.14,63.36,8.73,19.62,44.35,34.27,67.72,22.62,16.08-7.96,28.69-23.25,32.51-50.05,1.83-12.69,18.44-9.87,15.48,1.91-5.79,23.06-24.71,42.3-46.25,52.85-37.13,18.63-76.91,3.28-85.67-19.57ZM276.97,182.35c-1.71-7.73-16.02-6.43-31.71,1.21,12.45,12.31,33.51,6.96,31.71-1.21Z"/>
    </g>
  </g>
</svg>